# xmcd
# 
# Track frame offsets:
#     183
#     83953
#     112855
#     125575
#     154915
#     169010
#     183085
#     203563
#     222278
# 
# Disc length: 3118
# 
# Revision: 11
# Processed by: cddbd v1.5.2PL0 Copyright (c) Steve Scherf et al.
# Submitted via: fre:ac v1.0.31
# 
DISCID=700c2c09
DTITLE=Arlo Guthrie - The Best Of Arlo Guthrie
DYEAR=1977
DGENRE=Folk
TTITLE0=Alice's Restaurant Massacree
TTITLE1=Gabriel's Mother's Hiway Ballad #16 Blues
TTITLE2=Cooper's Lament
TTITLE3=Motorcycle (Significance Of The Pickle) Song
TTITLE4=Coming Into Los Angeles
TTITLE5=Last Train
TTITLE6=City Of New Orleans
TTITLE7=Darkest Hour
TTITLE8=Last to Leave
EXTD=LABEL =Warner Bros. Records, Inc.\nID =3117-2\nUPC =none\nCOPYRIGHT =1977
EXTT0=
EXTT1=
EXTT2=
EXTT3=
EXTT4=
EXTT5=
EXTT6=
EXTT7=
EXTT8=
PLAYORDER=
